<?xml version="1.0" encoding="iso-8859-1"?>
<!-- Generator: Adobe Illustrator 19.0.0, SVG Export Plug-In . SVG Version: 6.00 Build 0)  -->
<svg version="1.1" id="Capa_1" xmlns="http://www.w3.org/2000/svg" xmlns:xlink="http://www.w3.org/1999/xlink" x="0px" y="0px"
	 viewBox="0 0 512 512" style="enable-background:new 0 0 512 512;" xml:space="preserve">
<path style="fill:#444444;" d="M406.588,0h-15.059v45.176c0,8.308-6.75,15.059-15.059,15.059h-10.662l36.985,90.353h3.794
	c41.515,0,75.294-33.779,75.294-75.294S448.103,0,406.588,0z"/>
<path style="fill:#5A5A5A;" d="M135.529,60.235c-8.308,0-15.059-6.75-15.059-15.059V0h-15.059C63.897,0,30.118,33.779,30.118,75.294
	s33.779,75.294,75.294,75.294h3.794l36.985-90.353H135.529z"/>
<path style="fill:#F6A96C;" d="M421.647,331.294h-30.118V210.824h30.118c33.221,0,60.235,27.015,60.235,60.235
	S454.868,331.294,421.647,331.294z"/>
<path style="fill:#FFBD86;" d="M120.471,331.294H90.353c-33.221,0-60.235-27.015-60.235-60.235s27.015-60.235,60.235-60.235h30.118
	V331.294z"/>
<path style="fill:#FED2A4;" d="M421.647,210.824v135.529C421.647,437.608,347.258,512,256,512S90.353,437.608,90.353,346.353
	V210.824L128,180.706h272.866L421.647,210.824z"/>
<path style="fill:#FFBD86;" d="M421.647,210.824v135.529C421.647,437.608,347.258,512,256,512V180.706h144.866L421.647,210.824z"/>
<rect x="301.176" y="271.059" style="fill:#444444;" width="30.118" height="30.118"/>
<rect x="180.706" y="271.059" style="fill:#5A5A5A;" width="30.118" height="30.118"/>
<path style="fill:#BABAC0;" d="M421.647,150.588l-29.213,30.118H121.375l-31.022-30.118c0-66.561,54.212-120.471,120.471-120.471
	h90.353C367.737,30.118,421.647,84.027,421.647,150.588z"/>
<path style="fill:#B34F03;" d="M346.353,331.294H165.647c-41.562,0-75.294,33.732-75.294,75.294v15.059h105.412
	c24.696,0,46.38-12.048,60.235-30.721c13.855,18.673,35.539,30.721,60.235,30.721h105.412v-15.059
	C421.647,365.026,387.915,331.294,346.353,331.294z"/>
<path style="fill:#A1A1A7;" d="M392.434,180.706H256V30.118h45.176c66.561,0,120.471,53.91,120.471,120.471L392.434,180.706z"/>
<path style="fill:#913F02;" d="M421.647,406.588v15.059H316.235c-24.696,0-46.38-12.048-60.235-30.721v-59.632h90.353
	C387.915,331.294,421.647,365.026,421.647,406.588z"/>
<rect x="90.353" y="150.588" style="fill:#FFD400;" width="331.294" height="60.235"/>
<rect x="256" y="150.588" style="fill:#FF9F00;" width="165.647" height="60.235"/>
<g>
</g>
<g>
</g>
<g>
</g>
<g>
</g>
<g>
</g>
<g>
</g>
<g>
</g>
<g>
</g>
<g>
</g>
<g>
</g>
<g>
</g>
<g>
</g>
<g>
</g>
<g>
</g>
<g>
</g>
</svg>
